<svg id="Layer_1" enable-background="new 0 0 512 512" height="512" viewBox="0 0 512 512" width="512" xmlns="http://www.w3.org/2000/svg"><g><g><path d="m409.278 409.277c-8.963 8.963-23.495 8.963-32.458 0l-106.23-106.23 32.458-32.458 106.23 106.23c8.963 8.962 8.963 23.495 0 32.458z" fill="#c3c3d8"/><path d="m384.326 387.973-99.332-99.332-14.405 14.405 106.23 106.23c8.963 8.963 23.495 8.963 32.458 0 5.512-5.512 7.62-13.127 6.353-20.261-9.015 7.882-22.711 7.55-31.304-1.042z" fill="#aaaac1"/><circle cx="226.662" cy="226.663" fill="#c3c3d8" r="130.662"/><path d="m319.053 296.945c-51.026 51.026-133.757 51.026-184.784 0-22.699-22.699-35.273-51.673-37.777-81.337-3.125 37.021 9.45 75.119 37.777 103.447 51.027 51.026 133.757 51.026 184.784 0 28.328-28.328 40.902-66.426 37.777-103.447-2.503 29.664-15.078 58.638-37.777 81.337z" fill="#aaaac1"/><circle cx="226.662" cy="226.663" fill="#aeecff" r="98.664"/><path d="m156.896 184.383c38.53-38.53 101.001-38.53 139.531 0 15.761 15.761 25.065 35.528 27.932 56.022 4.142-29.609-5.162-60.739-27.932-83.509-38.53-38.531-101.001-38.531-139.531 0-22.77 22.77-32.075 53.899-27.932 83.509 2.867-20.494 12.171-40.261 27.932-56.022z" fill="#fff"/><path d="m283.661 171.1c-7.171-7.171-26.793-.539-36.809 9.477l-38.778 38.778 13.666 13.666 13.666 13.666 38.778-38.778c9.742-9.742 16.648-29.638 9.477-36.809z" fill="#ffe41d"/><path d="m283.785 170.975c-1.877-1.877-4.612-2.801-7.8-2.973.462 9.06-5.19 21.84-12.405 29.054l-38.778 38.778 10.728 10.728 38.778-38.778c9.743-9.742 16.648-29.638 9.477-36.809z" fill="#f5ab33"/><path d="m198.166 286.402-29.808-29.808c-2.101-2.101-2.101-5.508 0-7.61l60.099-60.099c2.102-2.101 5.508-2.101 7.61 0l29.808 29.808c2.101 2.101 2.101 5.508 0 7.61l-60.099 60.099c-2.102 2.102-5.509 2.102-7.61 0z" fill="#ffe41d"/><path d="m265.875 218.694-11.428-11.428c2.101 2.101 2.102 5.508 0 7.61l-60.099 60.099c-2.101 2.101-5.508 2.101-7.61 0l11.428 11.428c2.101 2.101 5.508 2.101 7.61 0l60.099-60.099c2.101-2.102 2.101-5.509 0-7.61z" fill="#f5ab33"/><path d="m193.965 302.631-41.836-41.836c-2.774-2.774-2.774-7.272 0-10.046l7.23-7.231c2.774-2.774 7.272-2.774 10.046 0l41.836 41.836c2.774 2.774 2.774 7.272 0 10.046l-7.231 7.231c-2.773 2.774-7.27 2.774-10.045 0z" fill="#ffe41d"/><path d="m211.242 285.354-14.848-14.849c2.774 2.774 2.774 7.272 0 10.046l-7.231 7.231c-2.774 2.774-7.272 2.774-10.046 0l14.848 14.848c2.774 2.774 7.272 2.774 10.046 0l7.231-7.231c2.774-2.773 2.774-7.271 0-10.045z" fill="#f5ab33"/><g><path d="m217.635 228.701c-1.024 0-2.047-.391-2.829-1.171-1.562-1.563-1.562-4.095 0-5.657l13.519-13.519c1.563-1.561 4.095-1.561 5.657 0 1.562 1.563 1.562 4.095 0 5.657l-13.519 13.519c-.781.78-1.804 1.171-2.828 1.171z" fill="#fff"/></g><g><path d="m269.423 186.652c-1.63 0-3.161-1.003-3.755-2.622-.761-2.074.303-4.372 2.376-5.133l.839-.308c2.075-.762 4.372.303 5.133 2.376.761 2.074-.303 4.372-2.376 5.133l-.839.308c-.455.167-.921.246-1.378.246z" fill="#fff"/></g><g><path d="m202.931 243.404c-1.024 0-2.047-.391-2.829-1.172-1.562-1.562-1.562-4.095.001-5.657l3.23-3.229c1.562-1.562 4.095-1.561 5.657 0 1.562 1.562 1.562 4.095 0 5.657l-3.23 3.229c-.782.782-1.805 1.172-2.829 1.172z" fill="#fff"/></g></g><g fill="#402943"><path d="m412.106 373.99-73.083-73.083c34.55-52.256 28.838-123.486-17.141-169.465-25.435-25.434-59.251-39.441-95.221-39.441-35.969 0-69.786 14.007-95.22 39.441s-39.441 59.251-39.441 95.221 14.007 69.786 39.441 95.221c26.252 26.252 60.736 39.378 95.22 39.378 25.913 0 51.826-7.414 74.247-22.238l73.083 73.083c5.254 5.254 12.156 7.881 19.057 7.881 6.902 0 13.804-2.627 19.058-7.881 10.508-10.51 10.508-27.608 0-38.117zm-275.007-57.764c-23.924-23.923-37.099-55.731-37.099-89.563s13.175-65.64 37.099-89.563c23.923-23.923 55.73-37.099 89.563-37.099s65.64 13.175 89.563 37.099c49.385 49.385 49.385 129.741 0 179.127-24.696 24.696-57.124 37.042-89.563 37.039-32.432-.004-64.874-12.35-89.563-37.04zm269.351 90.222c-7.389 7.389-19.413 7.39-26.802 0l-72.113-72.113c4.999-3.76 9.799-7.904 14.347-12.452 4.548-4.549 8.694-9.349 12.454-14.349l72.113 72.112c7.389 7.39 7.389 19.413.001 26.802z"/><path d="m299.256 154.068c-40.029-40.028-105.16-40.029-145.189 0-40.028 40.029-40.028 105.16 0 145.188 19.391 19.391 45.172 30.069 72.594 30.069s53.204-10.679 72.594-30.069c19.391-19.391 30.069-45.172 30.069-72.594s-10.678-53.202-30.068-72.594zm-5.657 139.532c-17.879 17.88-41.651 27.727-66.937 27.727-25.285 0-49.058-9.847-66.937-27.727-36.909-36.909-36.909-96.965 0-133.874 18.457-18.457 42.693-27.682 66.937-27.682 24.238 0 48.485 9.229 66.937 27.682 17.88 17.879 27.727 41.652 27.727 66.937-.001 25.285-9.848 49.057-27.727 66.937z"/><path d="m244.023 177.748-6.919 6.919c-3.605-2.174-8.366-1.717-11.475 1.39l-54.044 54.045c-4.358-3.722-10.932-3.532-15.052.588l-7.23 7.23c-2.097 2.098-3.253 4.886-3.253 7.852s1.155 5.754 3.253 7.852l41.835 41.836h.001c2.165 2.164 5.008 3.247 7.851 3.247 2.844 0 5.687-1.083 7.852-3.247l7.23-7.23c2.097-2.098 3.252-4.886 3.252-7.852 0-2.671-.944-5.194-2.663-7.202l54.043-54.043c1.772-1.772 2.748-4.128 2.748-6.634 0-1.736-.479-3.396-1.356-4.844l6.917-6.918c10.457-10.458 19.044-32.898 9.477-42.466-9.57-9.567-32.009-.981-42.467 9.477zm-35.609 114.824-7.23 7.23c-1.21 1.21-3.181 1.21-4.39 0l-41.836-41.836c-.586-.586-.909-1.365-.909-2.194s.323-1.609.91-2.195l7.231-7.23c1.21-1.211 3.179-1.21 4.389 0l41.836 41.836c.586.586.909 1.365.909 2.194-.001.829-.324 1.609-.91 2.195zm54.632-69.097-54.013 54.013-31.761-31.761 54.012-54.013c.538-.538 1.415-.538 1.953 0l29.808 29.808c.54.539.54 1.414.001 1.953zm8.309-18.394-6.718 6.718-21.676-21.675 6.719-6.719c9.112-9.113 26.289-14.339 31.152-9.477 4.76 4.761-.554 22.23-9.477 31.153z"/></g></g></svg>