<?xml version="1.0" encoding="iso-8859-1"?>
<!-- Generator: Adobe Illustrator 17.1.0, SVG Export Plug-In . SVG Version: 6.00 Build 0)  -->
<!DOCTYPE svg PUBLIC "-//W3C//DTD SVG 1.1//EN" "http://www.w3.org/Graphics/SVG/1.1/DTD/svg11.dtd">
<svg version="1.1" id="Capa_1" xmlns="http://www.w3.org/2000/svg" xmlns:xlink="http://www.w3.org/1999/xlink" x="0px" y="0px"
	 viewBox="0 0 487.867 487.867" style="enable-background:new 0 0 487.867 487.867;" xml:space="preserve">
<path d="M487.86,92.966c-0.007-0.307-0.041-0.609-0.103-0.905c-0.003-0.014-0.002-0.028-0.005-0.042
	c-0.001-0.005-0.004-0.01-0.005-0.015c-0.065-0.296-0.162-0.583-0.279-0.86c-0.019-0.046-0.036-0.093-0.057-0.139
	c-0.115-0.251-0.252-0.49-0.407-0.72c-0.037-0.054-0.074-0.107-0.113-0.16c-0.159-0.216-0.333-0.422-0.527-0.612
	c-0.041-0.04-0.085-0.076-0.127-0.115c-0.077-0.07-0.151-0.144-0.233-0.21c-0.125-0.101-0.255-0.191-0.388-0.279
	c-0.021-0.014-0.04-0.03-0.061-0.043c-0.24-0.153-0.493-0.278-0.752-0.388c-0.049-0.021-0.096-0.042-0.146-0.062
	c-0.259-0.1-0.525-0.176-0.797-0.232c-0.052-0.01-0.104-0.019-0.156-0.028c-0.283-0.048-0.57-0.076-0.859-0.074
	c-0.034,0-0.068,0.004-0.102,0.004c-0.313,0.008-0.627,0.04-0.938,0.108l-15.66,3.401V60.504c0-1.65-0.814-3.195-2.177-4.127
	c-1.363-0.933-3.098-1.131-4.636-0.533l-25.77,10.021V38.782c0-1.785-0.951-3.435-2.496-4.328s-3.448-0.896-4.997-0.006
	L243.933,139.202L61.795,34.448c-1.547-0.891-3.452-0.889-4.996,0.006c-1.545,0.894-2.497,2.543-2.497,4.328v27.083l-25.77-10.021
	c-1.539-0.598-3.272-0.399-4.635,0.533c-1.362,0.932-2.177,2.477-2.177,4.127v31.091l-15.66-3.401
	c-1.479-0.321-3.021,0.043-4.199,0.993C0.685,90.137,0,91.567,0,93.08v304.115c0,2.353,1.64,4.387,3.939,4.886l170.704,37.072
	c0.01,0.002,0.019,0.004,0.029,0.006l68.2,14.811c0.009,0.002,0.018,0.002,0.026,0.004c0.031,0.006,0.062,0.009,0.093,0.015
	c0.311,0.06,0.626,0.095,0.942,0.095c0.316,0,0.631-0.035,0.943-0.095c0.03-0.005,0.062-0.008,0.092-0.015
	c0.009-0.002,0.018-0.002,0.027-0.004l238.934-51.89c2.299-0.499,3.938-2.533,3.938-4.886V93.08c0-0.011-0.002-0.021-0.002-0.031
	C487.865,93.021,487.861,92.993,487.86,92.966z M456.145,93.767l-151.166,32.829l151.166-58.784V93.767z M423.563,69.753
	l-119.864,46.611l119.864-68.938V69.753z M64.303,47.426l119.865,68.938L64.303,69.753V47.426z M31.721,67.813l151.167,58.784
	l-6.197-1.346c-0.011-0.002-0.021-0.004-0.031-0.007L31.721,93.767V67.813z M10,99.282l160.667,34.892v293.883L10,393.165V99.282z
	 M477.867,393.165l-228.934,49.718v-10.854c0-2.762-2.238-5-5-5c-2.761,0-5,2.238-5,5v10.854l-58.267-12.654V136.346L238.933,149
	v253.009c0,2.762,2.239,5,5,5c2.762,0,5-2.238,5-5V149l228.934-49.718V393.165z M276.988,181.135l170.666-37.73
	c2.695-0.603,5.365,1.106,5.961,3.803c0.597,2.696-1.106,5.365-3.803,5.961l-170.666,37.73c-0.363,0.081-0.727,0.119-1.084,0.119
	c-2.294,0-4.361-1.589-4.877-3.922C272.588,184.399,274.292,181.73,276.988,181.135z M384.26,204.866
	c-1.027-0.049-2.061-0.065-3.097-0.074c-0.221-0.002-0.439-0.016-0.661-0.016c-0.002,0-0.003,0-0.005,0c-0.001,0-0.002,0-0.003,0
	c-0.541,0-1.086,0.012-1.631,0.023c-0.21,0.004-0.419,0.003-0.63,0.009c-0.261,0.007-0.524,0.023-0.785,0.033
	c-2.018,0.076-4.048,0.22-6.068,0.444c-1.319,0.146-2.635,0.329-3.947,0.539c-0.106,0.017-0.214,0.031-0.32,0.048
	c-1.186,0.194-2.367,0.419-3.544,0.664c-0.241,0.05-0.484,0.096-0.724,0.148c-1.054,0.229-2.103,0.483-3.15,0.751
	c-0.358,0.092-0.717,0.181-1.073,0.277c-0.952,0.257-1.9,0.536-2.844,0.826c-0.43,0.132-0.861,0.264-1.289,0.402
	c-0.898,0.291-1.792,0.599-2.682,0.919c-0.441,0.158-0.88,0.318-1.318,0.484c-0.901,0.339-1.796,0.694-2.687,1.063
	c-0.381,0.158-0.76,0.319-1.139,0.482c-0.962,0.414-1.919,0.844-2.868,1.292c-0.248,0.117-0.493,0.237-0.74,0.356
	c-1.086,0.524-2.165,1.068-3.233,1.637c-0.034,0.018-0.068,0.037-0.102,0.055c-10.928,5.833-20.836,13.928-28.904,23.839
	c-0.201,0.248-0.375,0.509-0.522,0.781c-12.538,15.702-20.163,35.269-20.163,55.749c0,40.78,29.606,71.832,69.469,73.673
	c1.063,0.05,2.134,0.069,3.206,0.076c0.185,0.001,0.367,0.013,0.553,0.013c0.001,0,0.003,0,0.004,0c0.001,0,0.002,0,0.003,0
	c0.001,0,0.001,0,0.001,0c3.007,0,6.073-0.171,9.115-0.509c1.319-0.146,2.635-0.329,3.946-0.538
	c0.107-0.017,0.214-0.031,0.321-0.049c1.185-0.194,2.365-0.419,3.542-0.664c0.242-0.05,0.486-0.096,0.728-0.148
	c1.052-0.228,2.098-0.482,3.141-0.75c0.362-0.093,0.725-0.183,1.086-0.28c0.948-0.256,1.892-0.534,2.833-0.822
	c0.434-0.133,0.868-0.266,1.3-0.405c0.894-0.29,1.783-0.596,2.669-0.915c0.446-0.16,0.89-0.322,1.332-0.489
	c0.895-0.338,1.785-0.69,2.671-1.057c0.387-0.161,0.772-0.324,1.157-0.49c0.956-0.411,1.906-0.838,2.849-1.283
	c0.256-0.121,0.51-0.245,0.764-0.368c1.078-0.521,2.149-1.061,3.209-1.625c0.043-0.023,0.086-0.047,0.129-0.07
	c10.919-5.831,20.82-13.921,28.882-23.825c0.199-0.244,0.37-0.503,0.516-0.771c12.545-15.705,20.175-35.278,20.175-55.764
	C453.733,237.759,424.125,206.707,384.26,204.866z M428.517,324.53c-13.098-11.211-29.929-17.342-48.021-17.342
	c-1.18,0-2.37,0.034-3.563,0.086v-15.73l66.563-7.392C442.38,298.795,436.967,312.723,428.517,324.53z M378.442,357.778
	c-0.501,0.105-1.006,0.185-1.509,0.28v-40.77c1.193-0.06,2.385-0.101,3.563-0.101c15.781,0,30.432,5.333,41.749,15.109
	c-11.831,13.018-27.318,22.012-43.763,25.474C378.469,357.773,378.455,357.775,378.442,357.778z M363.307,359.358
	c-1.033,0-2.057-0.028-3.075-0.073c-0.446-0.021-0.888-0.057-1.331-0.085c-0.572-0.037-1.145-0.073-1.712-0.123
	c-0.569-0.052-1.135-0.117-1.7-0.182c-0.419-0.048-0.838-0.096-1.253-0.151c-0.651-0.087-1.298-0.187-1.943-0.293
	c-0.302-0.05-0.604-0.101-0.905-0.154c-0.727-0.13-1.451-0.271-2.17-0.425c-0.183-0.039-0.366-0.081-0.548-0.122
	c-0.814-0.182-1.624-0.374-2.426-0.586c-0.034-0.009-0.067-0.019-0.1-0.027c-9.112-2.425-17.464-6.792-24.52-12.887
	c12.201-13.425,28.293-22.549,45.312-25.761v40.77c-1.195,0.06-2.389,0.101-3.568,0.101
	C363.345,359.359,363.327,359.358,363.307,359.358z M300.289,300.055l66.645-7.4v15.659c-19.645,3.26-38.265,13.519-52.318,28.79
	C306.35,327.13,301.182,314.38,300.289,300.055z M315.345,249.613c13.099,11.213,29.93,17.345,48.024,17.346
	c0.002,0,0.003,0,0.004,0c1.179,0,2.368-0.034,3.561-0.086v15.72l-66.563,7.392C301.486,275.344,306.898,261.418,315.345,249.613z
	 M380.565,214.778c1.029,0.001,2.05,0.028,3.065,0.073c0.451,0.021,0.898,0.057,1.346,0.086c0.567,0.037,1.134,0.072,1.696,0.122
	c0.575,0.052,1.147,0.118,1.719,0.184c0.411,0.047,0.823,0.094,1.232,0.149c0.658,0.089,1.313,0.188,1.965,0.296
	c0.294,0.048,0.588,0.098,0.881,0.15c0.736,0.132,1.468,0.273,2.195,0.43c0.173,0.037,0.345,0.076,0.518,0.114
	c0.824,0.184,1.645,0.379,2.458,0.594c0.019,0.005,0.039,0.011,0.058,0.016c9.126,2.425,17.489,6.796,24.553,12.899
	c-12.203,13.428-28.298,22.555-45.317,25.767v-40.78c1.195-0.06,2.387-0.101,3.566-0.101
	C380.521,214.776,380.543,214.778,380.565,214.778z M443.578,274.082l-66.645,7.4v-15.649c19.646-3.259,38.268-13.521,52.323-28.795
	C437.518,247.01,442.685,259.759,443.578,274.082z M366.933,256.858c-1.193,0.06-2.384,0.101-3.561,0.101c-0.001,0-0.002,0-0.003,0
	c-15.783-0.001-30.436-5.336-41.754-15.114c12.202-13.427,28.297-22.554,45.317-25.767V256.858z"/>
<g>
</g>
<g>
</g>
<g>
</g>
<g>
</g>
<g>
</g>
<g>
</g>
<g>
</g>
<g>
</g>
<g>
</g>
<g>
</g>
<g>
</g>
<g>
</g>
<g>
</g>
<g>
</g>
<g>
</g>
</svg>
