<?xml version="1.0" standalone="no"?>
<!DOCTYPE svg PUBLIC "-//W3C//DTD SVG 20010904//EN"
 "http://www.w3.org/TR/2001/REC-SVG-20010904/DTD/svg10.dtd">
<svg version="1.0" xmlns="http://www.w3.org/2000/svg"
 width="400.000000pt" height="400.000000pt" viewBox="0 0 400.000000 400.000000"
 preserveAspectRatio="xMidYMid meet">
<metadata>
Created by potrace 1.16, written by Peter Selinger 2001-2019
</metadata>
<g transform="translate(0.000000,400.000000) scale(0.100000,-0.100000)"
fill="#000000" stroke="none">
<path d="M2400 3753 c0 -7 8 -13 18 -13 22 0 136 -62 237 -129 42 -28 87 -57
99 -63 32 -17 260 -98 264 -93 5 5 -126 161 -159 191 -38 34 -101 71 -155 89
-64 23 -304 36 -304 18z"/>
<path d="M1407 3744 c-108 -26 -186 -78 -263 -177 -31 -40 -66 -80 -77 -90
-11 -10 -18 -20 -15 -22 6 -7 200 60 252 87 22 11 78 45 125 76 101 65 207
122 226 122 8 0 17 5 20 10 9 15 -200 11 -268 -6z"/>
<path d="M1155 3716 c-161 -51 -250 -153 -327 -375 -16 -46 -40 -106 -54 -133
-14 -28 -23 -52 -20 -55 2 -3 24 8 48 25 52 36 116 63 228 98 105 32 206 84
265 136 48 42 111 126 102 135 -3 3 -21 -6 -39 -20 -53 -39 -89 -55 -208 -87
-111 -30 -178 -58 -214 -89 -11 -9 0 9 25 40 24 31 73 98 109 149 66 95 115
140 176 162 19 7 34 16 34 20 0 12 -80 8 -125 -6z"/>
<path d="M2800 3722 c0 -6 16 -16 37 -23 52 -17 117 -81 186 -184 34 -49 81
-112 106 -140 25 -27 37 -42 26 -33 -35 29 -138 75 -207 92 -111 28 -181 55
-221 87 -21 17 -41 28 -44 25 -11 -11 60 -102 111 -144 58 -48 144 -91 241
-122 109 -34 192 -70 235 -101 22 -16 44 -29 50 -29 6 0 -1 23 -15 51 -15 28
-40 90 -57 137 -67 194 -140 293 -258 350 -68 33 -190 55 -190 34z"/>
<path d="M3140 3604 c0 -3 19 -25 43 -47 53 -53 86 -120 133 -277 20 -69 53
-156 72 -195 l35 -70 -50 47 c-55 50 -131 93 -262 144 -46 18 -94 43 -107 55
-40 38 -53 16 -13 -24 19 -19 49 -53 65 -74 55 -72 70 -85 204 -176 165 -111
207 -145 255 -208 21 -28 39 -48 42 -46 2 2 -3 33 -11 68 -8 35 -17 118 -21
184 -12 205 -61 341 -166 459 -60 67 -219 183 -219 160z"/>
<path d="M855 3565 c-110 -77 -194 -176 -244 -288 -40 -88 -51 -141 -62 -296
-10 -148 -17 -197 -31 -223 -6 -13 -5 -18 7 -18 8 0 15 4 15 9 0 28 117 131
250 221 97 65 164 118 192 152 24 28 62 71 86 96 60 63 59 79 -3 37 -20 -13
-73 -38 -118 -55 -120 -46 -194 -89 -248 -141 l-48 -47 33 67 c19 36 46 107
61 156 63 211 91 272 151 324 60 54 34 57 -41 6z"/>
<path d="M1903 3520 c-575 -65 -1033 -484 -1154 -1053 -31 -142 -31 -380 -1
-518 40 -185 96 -317 197 -469 63 -95 243 -299 275 -311 9 -4 45 -27 81 -52
131 -91 310 -167 482 -204 102 -22 409 -25 502 -5 276 60 500 180 684 365 193
194 309 405 368 672 23 107 28 350 9 467 -45 277 -172 524 -371 724 -192 192
-409 310 -674 364 -114 23 -295 32 -398 20z m387 -65 c104 -21 230 -64 237
-82 3 -8 12 -12 20 -9 17 7 112 -40 208 -102 96 -62 280 -248 345 -347 154
-237 217 -470 207 -760 -4 -123 -10 -171 -35 -267 -125 -485 -520 -847 -1016
-933 -113 -19 -318 -19 -429 0 -471 82 -858 421 -996 870 -45 150 -55 215 -55
380 0 274 66 494 216 720 59 89 203 240 289 303 96 70 231 143 252 136 12 -4
17 -2 13 4 -12 20 201 84 344 102 88 12 308 3 400 -15z"/>
<path d="M2256 3418 c-6 -18 -26 -117 -26 -128 0 -5 20 -12 45 -16 53 -7 80 9
90 57 12 54 -3 72 -83 94 -14 4 -24 2 -26 -7z"/>
<path d="M2571 3255 c-17 -30 -31 -59 -31 -65 0 -16 55 -39 79 -33 27 7 50
-12 44 -36 -3 -13 2 -21 16 -26 12 -3 21 -11 21 -16 0 -25 34 -3 71 47 35 45
40 57 28 65 -21 13 -21 13 -58 -42 -19 -27 -36 -47 -38 -45 -3 3 0 28 6 56 23
105 6 120 -72 61 -28 -22 -53 -38 -55 -36 -3 2 8 25 23 50 25 43 28 75 6 75
-5 0 -23 -25 -40 -55z"/>
<path d="M1932 3279 c-247 -23 -479 -134 -657 -314 -193 -194 -298 -435 -312
-712 -5 -96 -9 -120 -19 -116 -8 3 -14 0 -14 -7 0 -8 -8 -10 -22 -7 -34 9 -86
-18 -94 -48 -14 -54 36 -105 90 -91 40 10 58 34 55 77 -2 21 0 41 4 45 4 4 7
-9 7 -28 0 -20 3 -49 6 -65 l6 -29 -76 -13 c-63 -11 -76 -17 -76 -32 0 -22 8
-23 84 -7 32 6 60 17 63 25 3 7 20 -32 39 -87 18 -55 43 -119 55 -142 14 -28
17 -39 7 -30 -12 10 -23 2 -62 -49 -50 -64 -53 -89 -13 -89 29 0 129 18 135
25 9 9 -20 34 -33 29 -7 -3 -19 4 -25 16 -10 18 -9 25 2 36 12 12 20 4 58 -53
24 -37 78 -103 119 -146 132 -138 263 -222 441 -281 266 -88 549 -70 803 52
676 324 822 1217 284 1739 -233 226 -533 333 -855 302z m353 -74 c228 -58 418
-178 553 -348 283 -358 305 -846 55 -1224 -93 -141 -271 -292 -427 -363 -222
-101 -504 -117 -741 -43 -362 114 -635 426 -701 805 -21 117 -14 307 15 423
102 412 451 722 872 774 107 14 267 3 374 -24z"/>
<path d="M1930 3060 c-21 -11 -45 -16 -59 -13 -20 5 -23 3 -17 -12 5 -14 4
-16 -7 -7 -10 9 -25 5 -61 -18 -26 -17 -50 -30 -55 -30 -12 0 -52 -50 -47 -59
3 -5 -3 -16 -14 -26 -13 -12 -17 -22 -10 -30 10 -12 -31 -65 -50 -65 -6 0 -10
-5 -10 -11 0 -6 7 -8 15 -5 10 3 6 -7 -11 -29 -14 -19 -24 -41 -21 -49 5 -14
-27 -66 -45 -74 -15 -7 -8 -32 9 -32 14 0 13 -3 -5 -16 -25 -17 -30 -39 -7
-30 13 4 14 2 5 -14 -6 -11 -20 -26 -30 -33 -26 -16 -25 -31 1 -24 19 5 20 4
5 -12 -22 -24 -20 -34 4 -28 18 5 18 4 -2 -24 -24 -32 -18 -50 9 -28 14 12 13
9 -3 -16 -10 -16 -23 -33 -27 -36 -5 -4 -8 -12 -5 -19 3 -10 7 -9 19 2 17 17
39 12 39 -9 0 -13 3 -13 18 -2 9 7 6 1 -8 -15 -15 -18 -21 -30 -14 -33 9 -3 9
-10 0 -28 -6 -14 -14 -25 -18 -25 -5 0 -8 -7 -8 -16 0 -9 5 -12 13 -8 6 4 2
-4 -10 -18 -22 -24 -30 -48 -16 -48 4 0 20 12 36 28 l29 27 -31 -62 c-32 -64
-39 -89 -21 -78 14 9 12 -7 -5 -49 -9 -20 -13 -41 -10 -46 3 -5 -1 -20 -10
-34 -12 -18 -13 -26 -4 -31 6 -4 15 -1 20 6 6 10 9 11 9 2 0 -21 21 -15 27 7
4 15 9 17 23 10 25 -13 28 -13 33 8 4 12 5 11 6 -6 0 -12 -6 -25 -15 -29 -10
-3 -14 -13 -11 -25 5 -16 3 -17 -9 -7 -17 14 -18 5 -3 -23 9 -16 8 -19 -3 -14
-7 3 -21 9 -30 12 -10 4 -18 10 -18 15 0 5 7 6 15 3 9 -4 15 0 15 10 0 10 -9
16 -24 16 -39 0 -47 -67 -10 -95 17 -13 17 -14 2 -15 -32 0 -19 -17 23 -29 23
-7 39 -14 36 -17 -2 -2 -16 0 -30 5 -17 7 -28 7 -32 1 -9 -14 3 -30 23 -30 9
0 24 -5 32 -10 11 -8 8 -9 -12 -4 -22 5 -28 3 -28 -10 0 -11 10 -16 33 -17
l32 -1 -29 -7 c-43 -9 -45 -31 -4 -32 23 -1 26 -3 11 -6 -33 -6 -28 -21 10
-32 17 -5 26 -10 20 -10 -18 -1 -16 -21 2 -21 8 0 15 -4 15 -10 0 -5 19 -10
43 -10 30 0 38 -3 27 -10 -24 -15 -3 -24 53 -23 28 1 42 -1 29 -4 -31 -6 -23
-27 13 -33 16 -3 29 -9 29 -15 1 -12 184 -16 192 -4 3 5 18 9 35 9 16 0 29 5
29 10 0 6 -4 10 -10 10 -5 0 -10 11 -10 25 0 14 -6 25 -12 25 -7 0 -5 5 5 11
23 14 32 5 33 -32 3 -61 1 -59 51 -55 39 3 50 9 58 28 9 20 18 23 64 25 30 2
57 7 60 11 3 5 18 12 34 16 15 3 27 13 27 21 0 8 5 15 11 15 6 0 9 7 5 15 -3
9 0 15 9 15 8 0 15 7 15 16 0 8 14 20 31 26 26 9 30 15 26 35 -4 20 5 35 41
70 l45 45 -17 31 c-13 24 -13 27 -2 13 19 -24 35 -12 19 13 -10 16 -9 18 8 14
22 -6 25 7 7 26 -11 10 -10 11 5 6 20 -8 25 20 5 28 -10 4 -10 8 1 15 8 6 11
17 8 25 -3 9 -1 18 6 20 9 3 8 9 -3 22 -11 14 -12 19 -2 22 16 6 15 28 -3 63
-14 26 -14 29 0 24 18 -7 20 17 3 35 -11 10 -10 11 5 6 20 -8 23 5 5 23 -10
10 -10 15 2 23 13 8 12 12 -5 27 -11 9 -27 26 -35 37 -8 11 0 7 18 -9 45 -42
41 -11 -5 37 -27 28 -31 36 -15 28 12 -6 22 -16 22 -21 0 -6 5 -10 10 -10 15
0 12 21 -7 42 -9 11 -11 18 -5 18 21 0 13 24 -15 48 -20 16 -21 19 -6 10 33
-18 40 -2 12 29 -13 14 -18 23 -11 19 28 -17 10 25 -23 50 -19 14 -35 31 -35
37 0 6 11 0 25 -13 25 -24 47 -21 27 3 -9 10 -9 16 0 25 8 8 5 17 -13 32 -13
12 -18 19 -11 15 19 -10 14 20 -7 39 -11 10 -17 24 -14 32 3 8 -5 18 -21 25
-28 13 -36 49 -11 49 8 0 15 5 15 10 0 14 -28 12 -33 -2 -3 -10 -9 -9 -23 3
-10 9 -29 20 -42 24 -13 4 -22 9 -19 11 2 3 16 0 31 -5 20 -8 26 -8 26 3 0 8
-17 20 -37 26 -50 16 -59 26 -25 25 15 0 31 -6 35 -12 9 -15 37 -17 37 -4 0 9
-62 42 -100 55 -11 3 -10 5 3 5 10 1 27 -4 38 -9 24 -13 25 1 3 35 -11 17 -26
25 -48 26 -30 2 -30 2 -3 6 31 5 36 19 8 28 -24 7 -65 45 -74 68 -4 11 -17 17
-37 17 -16 0 -30 4 -30 9 0 10 -42 23 -49 15 -3 -3 1 -9 9 -14 11 -7 7 -10
-15 -10 -23 0 -27 3 -15 10 13 9 13 11 0 20 -33 21 -89 22 -117 2 -16 -11 -44
-27 -63 -36 l-35 -17 25 20 c14 11 28 21 33 21 4 0 7 7 7 15 0 19 -7 18 -50
-5z"/>
<path d="M1310 3201 c-28 -12 -70 -43 -70 -52 0 -16 74 -109 87 -109 21 0 26
21 9 39 -21 24 -11 32 25 19 32 -11 59 -5 59 12 0 6 -13 15 -28 21 -19 7 -28
16 -28 30 1 25 -33 50 -54 40z"/>
<path d="M2786 3109 c-25 -27 -46 -54 -46 -59 0 -18 26 -16 49 4 l24 21 -6
-42 c-7 -60 26 -90 38 -33 4 17 12 30 19 30 7 0 21 9 30 19 23 26 14 52 -28
85 l-34 25 -46 -50z"/>
<path d="M1070 2975 l-33 -34 29 -23 c16 -13 40 -33 54 -45 l25 -22 -41 -1
c-37 0 -43 3 -54 30 -16 38 -35 33 -34 -9 2 -26 -1 -31 -22 -31 -13 0 -24 -2
-24 -4 0 -2 -3 -12 -7 -21 -5 -15 -1 -16 33 -11 38 7 41 6 57 -28 12 -27 13
-36 4 -36 -7 0 -18 -13 -24 -30 -13 -35 -39 -42 -29 -7 12 38 12 50 -2 54 -7
3 -18 -9 -26 -27 -8 -21 -16 -28 -20 -21 -4 7 0 23 9 38 14 21 15 27 4 34 -8
5 -16 9 -20 9 -5 0 -51 -103 -46 -105 1 0 30 -14 64 -30 35 -16 64 -27 66 -24
2 2 19 33 36 68 27 53 31 69 22 88 -9 21 -8 23 14 23 15 0 31 11 44 29 25 35
26 40 4 56 -17 13 -17 14 0 32 22 25 22 46 -1 66 -27 25 -44 21 -82 -18z"/>
<path d="M865 2577 c-8 -13 -17 -36 -21 -53 -5 -28 -4 -29 55 -46 33 -10 65
-18 70 -18 17 0 33 77 21 100 -23 43 -101 53 -125 17z"/>
<path d="M3175 2453 c-70 -14 -66 -11 -59 -51 9 -52 30 -72 74 -72 50 0 84 32
76 73 -3 16 -6 36 -6 43 0 14 -39 17 -85 7z"/>
<path d="M950 1915 c-17 -18 -27 -22 -40 -15 -13 7 -24 5 -41 -8 -21 -18 -22
-20 -6 -65 8 -25 12 -49 9 -53 -4 -4 2 -4 13 0 10 4 45 15 77 24 41 12 58 21
55 32 -2 10 -13 14 -35 12 -37 -2 -40 7 -12 33 21 19 27 50 11 59 -4 3 -18 -6
-31 -19z"/>
<path d="M1237 1408 c-54 -130 -46 -147 48 -100 36 17 65 27 65 21 0 -6 11
-20 25 -31 30 -24 23 -45 -8 -23 -12 8 -27 15 -34 15 -21 0 -15 -26 10 -43 12
-8 19 -18 15 -23 -5 -4 -17 1 -28 11 -18 16 -50 15 -50 -2 1 -9 76 -63 88 -63
4 0 23 23 42 51 29 42 35 48 41 32 12 -29 10 -43 -6 -43 -19 0 -38 -36 -31
-58 5 -15 84 -68 90 -60 23 31 65 121 61 128 -10 17 -33 11 -40 -10 -10 -30
-25 -24 -25 10 0 33 2 31 -93 101 -45 32 -75 48 -87 44 -20 -6 -44 19 -45 48
0 33 -23 31 -38 -5z"/>
<path d="M2558 1244 c-51 -27 -47 -94 7 -130 21 -14 30 -14 55 -4 38 16 53 43
45 80 -6 29 -47 70 -69 70 -6 -1 -23 -7 -38 -16z"/>
<path d="M1711 1137 c-7 -9 -11 -24 -10 -34 1 -10 -1 -26 -6 -35 -15 -36 5
-54 76 -71 24 -6 26 -4 42 65 10 39 16 73 14 75 -3 2 -26 6 -53 9 -38 5 -53 3
-63 -9z"/>
<path d="M2035 1110 c-3 -6 -3 -20 0 -31 6 -19 5 -20 -15 -9 -18 10 -24 9 -31
-1 -14 -23 -10 -36 13 -42 21 -6 21 -7 3 -27 -18 -20 -18 -21 1 -35 26 -19 32
-19 39 5 8 24 21 26 29 5 7 -19 35 -19 42 0 4 8 1 22 -5 29 -10 11 -8 16 8 21
22 7 29 39 11 50 -5 3 -19 1 -30 -5 -18 -10 -20 -8 -20 20 0 23 -4 30 -19 30
-11 0 -23 -5 -26 -10z"/>
<path d="M482 3134 c-87 -122 -127 -229 -152 -402 -11 -82 -4 -150 31 -272 12
-41 27 -106 33 -144 7 -38 17 -71 24 -74 7 -2 12 3 12 12 0 51 60 156 166 292
119 152 211 293 251 382 12 29 23 55 23 57 0 15 -19 0 -46 -34 -16 -22 -71
-71 -120 -109 -102 -79 -188 -169 -222 -234 -13 -23 -21 -32 -17 -18 4 14 10
120 15 235 6 170 12 223 29 276 12 37 28 72 36 79 18 15 19 30 3 30 -7 0 -37
-34 -66 -76z"/>
<path d="M3520 3206 c0 -2 11 -26 24 -53 35 -71 46 -138 46 -286 1 -125 11
-249 25 -292 4 -11 -7 3 -23 32 -49 85 -102 142 -209 225 -56 43 -118 98 -137
121 -48 56 -47 29 2 -65 57 -108 117 -198 231 -342 108 -136 128 -169 155
-253 10 -29 21 -53 26 -53 4 0 11 21 15 48 3 26 21 99 38 162 42 154 43 279 4
423 -15 54 -38 119 -51 145 -47 92 -146 219 -146 188z"/>
<path d="M261 2672 c-47 -92 -65 -173 -65 -287 -1 -128 14 -185 78 -315 46
-92 206 -349 219 -350 4 0 7 36 7 81 0 93 10 138 86 374 73 230 107 405 78
405 -8 0 -14 -7 -14 -15 0 -23 -32 -83 -106 -196 -75 -114 -101 -174 -118
-274 l-12 -70 -8 59 c-3 33 -34 139 -67 237 -62 183 -72 253 -54 352 9 47 1
47 -24 -1z"/>
<path d="M3786 2684 c5 -16 9 -67 8 -114 0 -72 -6 -101 -38 -190 -56 -156 -84
-254 -93 -323 l-7 -62 -7 80 c-8 103 -39 178 -128 311 -38 58 -77 125 -87 149
-25 66 -38 57 -29 -22 9 -87 32 -177 94 -368 61 -188 84 -298 78 -371 -3 -35
-1 -54 5 -52 15 5 178 264 217 345 60 122 73 170 78 288 5 119 -5 177 -51 290
-25 62 -57 93 -40 39z"/>
<path d="M175 2168 c-10 -33 -12 -130 -3 -198 15 -130 59 -244 140 -363 43
-63 100 -112 223 -192 44 -29 102 -69 129 -90 52 -40 53 -39 19 45 -15 38 -17
68 -13 200 7 296 3 440 -17 524 -23 96 -43 112 -43 35 0 -29 -16 -114 -34
-188 -51 -198 -55 -291 -21 -396 4 -11 -7 4 -23 33 -34 58 -57 90 -179 240
-99 123 -144 211 -151 299 -4 58 -17 81 -27 51z"/>
<path d="M3420 2075 c-25 -121 -28 -212 -16 -445 9 -171 3 -237 -31 -303 -19
-38 -12 -43 23 -14 16 13 84 61 150 105 152 102 217 171 277 294 51 102 75
180 84 274 6 67 -4 194 -16 194 -4 0 -12 -32 -18 -71 -15 -93 -56 -174 -140
-277 -117 -144 -162 -205 -190 -259 -15 -28 -29 -51 -30 -49 -1 1 4 24 12 51
25 82 19 187 -20 340 -19 75 -38 166 -41 201 -4 35 -10 64 -14 64 -4 0 -17
-47 -30 -105z"/>
<path d="M694 1688 c4 -13 11 -86 16 -163 12 -185 27 -236 93 -312 l32 -37
-45 30 c-25 17 -103 61 -175 98 -214 112 -288 174 -337 283 -18 39 -23 44 -26
26 -5 -34 24 -137 61 -211 21 -45 57 -92 107 -143 116 -117 223 -160 485 -193
72 -9 145 -21 163 -27 38 -13 57 -3 27 14 -38 21 -128 112 -160 162 -17 28
-57 115 -89 195 -67 166 -133 300 -148 300 -6 0 -8 -10 -4 -22z"/>
<path d="M3358 1688 c-31 -47 -77 -147 -133 -288 -77 -193 -121 -258 -230
-337 -37 -26 -28 -39 17 -24 18 5 87 17 153 26 163 22 248 42 324 76 127 58
215 144 280 276 27 54 60 164 61 201 0 27 -18 10 -34 -33 -37 -95 -139 -181
-326 -275 -58 -29 -136 -73 -175 -98 l-70 -45 42 45 c50 55 67 87 81 153 11
47 34 336 28 343 -2 1 -10 -8 -18 -20z"/>
<path d="M400 1199 c0 -34 68 -146 129 -211 132 -142 290 -185 506 -138 235
51 274 54 331 22 18 -10 17 -11 -6 -16 -14 -3 -59 -10 -100 -17 -41 -6 -112
-22 -158 -35 -70 -21 -104 -24 -232 -24 l-150 0 0 -275 0 -275 235 0 235 0 0
254 c0 222 2 255 16 260 45 17 44 20 44 -254 l0 -260 260 0 260 0 0 275 0 275
-202 2 c-112 1 -178 3 -147 5 49 3 58 7 68 30 11 24 9 28 -21 54 -49 41 -154
95 -228 115 -53 15 -108 19 -287 20 -194 2 -231 5 -291 23 -84 25 -182 89
-219 142 -28 39 -43 49 -43 28z m610 -518 c76 -15 106 -86 58 -134 l-23 -22
29 -20 c38 -26 49 -67 31 -111 -23 -55 -53 -67 -181 -72 l-114 -5 0 187 0 186
78 0 c42 -1 97 -5 122 -9z m624 -168 c36 -98 66 -181 66 -185 0 -5 -20 -8 -43
-8 -42 0 -45 2 -60 40 l-16 41 -67 -3 c-67 -3 -67 -3 -79 -38 -11 -33 -15 -35
-58 -38 -26 -2 -47 -1 -47 3 0 3 30 86 66 185 l67 180 52 0 52 0 67 -177z"/>
<path d="M3618 1157 c-49 -57 -147 -116 -227 -137 -26 -7 -138 -13 -275 -14
-220 -2 -235 -4 -312 -29 -65 -22 -146 -66 -218 -118 -4 -4 -5 -20 -1 -37 6
-30 8 -31 68 -35 34 -2 -18 -4 -115 -5 l-178 -2 0 -275 0 -275 235 0 235 0 0
260 c0 155 4 260 9 260 5 0 21 -4 35 -10 l26 -10 0 -250 0 -250 235 0 235 0 0
275 0 275 -160 0 c-142 0 -170 3 -247 26 -49 14 -128 31 -176 38 -48 8 -90 16
-93 19 -11 10 72 31 121 29 28 0 97 -12 155 -26 138 -34 220 -41 307 -27 134
23 234 88 319 207 44 62 92 164 76 164 -4 0 -28 -24 -54 -53z m-918 -623 l0
-156 -30 -28 c-33 -31 -98 -45 -161 -35 -36 6 -39 9 -39 41 l0 34 45 -7 c33
-4 51 -1 70 11 24 16 25 20 25 121 l0 104 -42 3 c-32 2 -44 8 -46 21 -8 41 4
47 93 47 l85 0 0 -156z m540 121 c0 -32 -2 -35 -30 -35 l-30 0 0 -115 0 -115
30 0 c28 0 30 -3 30 -35 l0 -35 -105 0 -105 0 0 35 c0 32 2 35 30 35 l30 0 0
115 0 115 -30 0 c-28 0 -30 3 -30 35 l0 35 105 0 105 0 0 -35z"/>
<path d="M1830 505 l0 -275 235 0 235 0 0 275 0 275 -235 0 -235 0 0 -275z
m370 150 l0 -35 -85 0 -85 0 0 -35 0 -35 80 0 80 0 0 -35 0 -35 -80 0 -80 0 0
-45 0 -45 85 0 85 0 0 -35 0 -36 -132 3 -133 3 -3 170 c-1 93 0 175 2 182 4
10 39 13 136 13 l130 0 0 -35z"/>
</g>
</svg>
